<?xml version="1.0" standalone="no"?>
<!DOCTYPE svg PUBLIC "-//W3C//DTD SVG 20010904//EN"
 "http://www.w3.org/TR/2001/REC-SVG-20010904/DTD/svg10.dtd">
<svg version="1.0" xmlns="http://www.w3.org/2000/svg"
 width="192.000000pt" height="192.000000pt" viewBox="0 0 192.000000 192.000000"
 preserveAspectRatio="xMidYMid meet">
<metadata>
Created by potrace 1.14, written by Peter Selinger 2001-2017
</metadata>
<g transform="translate(0.000000,192.000000) scale(0.100000,-0.100000)"
fill="#000000" stroke="none">
<path d="M875 1910 c-4 -6 -9 -104 -12 -218 -4 -179 -7 -236 -12 -287 -1 -6
-17 -28 -37 -50 -35 -39 -88 -138 -101 -186 -3 -13 -7 -268 -8 -566 -1 -458 1
-547 13 -573 l14 -30 229 0 229 0 12 28 c8 19 12 184 12 572 0 493 -2 550 -18
595 -21 60 -55 118 -96 164 -16 18 -31 36 -31 40 -4 17 -8 105 -13 294 -3 115
-8 213 -11 218 -8 12 -162 11 -170 -1z"/>
</g>
</svg>
